<svg xmlns="http://www.w3.org/2000/svg" xmlns:xlink="http://www.w3.org/1999/xlink" version="1.1" x="0px" y="0px" viewBox="0 0 100 125" style="enable-background:new 0 0 100 100;" xml:space="preserve"><g><polygon points="92.6,41 92.6,33.3 78.7,41  "/><polygon points="92.6,65 92.6,57.3 78.7,57.3  "/><polygon points="74.9,24.5 55.7,24.5 55.7,35.3  "/><polygon points="39.5,24.5 20.2,24.5 39.5,35.3  "/><polygon points="55.7,73.7 74.9,73.7 55.7,63  "/><polygon points="20.2,73.7 39.5,73.7 39.5,63  "/><polygon points="5,57.3 5,63.6 16.4,57.3  "/><polygon points="5,34.6 5,41 16.4,41  "/><polygon points="55.7,41 72.1,41 92.6,29.5 92.6,24.5 81.6,24.5 55.7,39  "/><polygon points="39.5,41 39.5,39 13.6,24.5 5,24.5 5,30.9 23.1,41  "/><polygon points="39.5,57.3 23.1,57.3 5,67.4 5,73.7 13.6,73.7 39.5,59.3  "/><polygon points="72.1,57.3 55.7,57.3 55.7,59.3 81.6,73.7 92.6,73.7 92.6,68.7  "/><polygon points="92.6,54 92.6,44.3 52.5,44.3 52.5,24.5 42.7,24.5 42.7,44.3 5,44.3 5,54 42.7,54 42.7,73.7    52.5,73.7 52.5,54  "/></g><text x="0" y="115" fill="#000000" font-size="5px" font-weight="bold" font-family="'Helvetica Neue', Helvetica, Arial-Unicode, Arial, Sans-serif">Created by Robert Bjurshagen</text><text x="0" y="120" fill="#000000" font-size="5px" font-weight="bold" font-family="'Helvetica Neue', Helvetica, Arial-Unicode, Arial, Sans-serif">from the Noun Project</text></svg>