<?xml version="1.0" encoding="utf-8"?>
<!-- Generated by IcoMoon.io -->
<svg version="1.1" xmlns="http://www.w3.org/2000/svg" xmlns:xlink="http://www.w3.org/1999/xlink" width="752" height="80" viewBox="0 0 752 80">

<symbol id="icon-google" viewBox="0 0 32 32" x="0" y="0">
  <path d="M16.32 13.713v5.487h9.075c-0.367 2.353-2.741 6.899-9.075 6.899-5.46 0-9.919-4.519-9.919-10.099s4.46-10.099 9.919-10.099c3.107 0 5.188 1.319 6.38 2.465l4.339-4.184c-2.787-2.601-6.4-4.183-10.719-4.183-8.847 0-16 7.153-16 16s7.153 16 16 16c9.235 0 15.36-6.492 15.36-15.635 0-1.051-0.113-1.853-0.252-2.652z"></path>
</symbol>

<symbol id="icon-python" viewBox="0 0 32 32" x="0" y="0">
  <path d="M19.080 0.24l1.2 0.267 0.973 0.347 0.787 0.4 0.6 0.427 0.453 0.453 0.333 0.453 0.213 0.44 0.133 0.4 0.053 0.347 0.027 0.267-0.013 0.173v7.12l-0.067 0.84-0.173 0.733-0.28 0.613-0.347 0.507-0.4 0.413-0.44 0.333-0.467 0.253-0.467 0.187-0.44 0.133-0.4 0.093-0.347 0.053-0.28 0.027h-7.96l-0.92 0.067-0.787 0.187-0.667 0.293-0.547 0.36-0.44 0.427-0.36 0.467-0.267 0.48-0.2 0.493-0.133 0.467-0.093 0.427-0.053 0.36-0.027 0.28v4.080h-2.973l-0.28-0.040-0.373-0.093-0.427-0.16-0.467-0.24-0.48-0.347-0.48-0.48-0.467-0.613-0.427-0.787-0.373-0.973-0.28-1.173-0.187-1.4-0.067-1.64 0.080-1.627 0.213-1.387 0.32-1.16 0.427-0.947 0.48-0.76 0.533-0.587 0.56-0.44 0.56-0.32 0.533-0.213 0.48-0.133 0.427-0.067 0.32-0.013h0.213l0.080 0.013h10.88v-1.107h-7.787l-0.013-3.667-0.027-0.493 0.067-0.453 0.147-0.413 0.227-0.373 0.333-0.347 0.413-0.307 0.507-0.267 0.587-0.24 0.68-0.2 0.773-0.16 0.853-0.133 0.947-0.080 1.027-0.053 1.12-0.027 1.693 0.067zM10.68 2.88l-0.307 0.44-0.107 0.547 0.107 0.547 0.307 0.453 0.44 0.293 0.547 0.12 0.547-0.12 0.44-0.293 0.307-0.453 0.107-0.547-0.107-0.547-0.307-0.44-0.44-0.293-0.547-0.12-0.547 0.12zM28.133 8.147l0.373 0.080 0.427 0.16 0.467 0.24 0.48 0.36 0.48 0.467 0.467 0.627 0.427 0.787 0.373 0.973 0.28 1.173 0.187 1.387 0.067 1.64-0.080 1.64-0.213 1.387-0.32 1.147-0.427 0.947-0.48 0.76-0.533 0.6-0.56 0.44-0.56 0.32-0.533 0.213-0.48 0.12-0.427 0.067-0.32 0.027-0.213-0.013h-10.96v1.093h7.787l0.013 3.68 0.027 0.48-0.067 0.453-0.147 0.413-0.227 0.387-0.333 0.333-0.413 0.32-0.507 0.267-0.587 0.227-0.68 0.2-0.773 0.173-0.853 0.12-0.947 0.093-1.027 0.053-1.12 0.013-1.693-0.053-1.427-0.187-1.2-0.267-0.973-0.333-0.787-0.4-0.6-0.44-0.453-0.453-0.333-0.453-0.213-0.44-0.133-0.4-0.053-0.333-0.027-0.267 0.013-0.173v-7.12l0.067-0.853 0.173-0.72 0.28-0.613 0.347-0.507 0.4-0.427 0.44-0.32 0.467-0.267 0.467-0.187 0.44-0.133 0.4-0.080 0.347-0.053 0.28-0.027 0.173-0.013h7.787l0.92-0.067 0.787-0.187 0.667-0.28 0.547-0.373 0.44-0.427 0.36-0.467 0.267-0.48 0.2-0.48 0.133-0.467 0.093-0.427 0.053-0.373 0.027-0.28v-4.080h2.787l0.187 0.013zM19.507 27.147l-0.307 0.44-0.107 0.547 0.107 0.547 0.307 0.44 0.44 0.307 0.547 0.107 0.547-0.107 0.44-0.307 0.307-0.44 0.107-0.547-0.107-0.547-0.307-0.44-0.44-0.307-0.547-0.107-0.547 0.107z"></path>
</symbol>

<symbol id="icon-microsoftexcel" viewBox="0 0 36 36" x="2" y="2">
  <path d="M31.404 4.136h-10.72v1.984h3.16v3.139h-3.16v1h3.16v3.143h-3.16v1.028h3.16v2.972h-3.16v1.191h3.16v2.979h-3.16v1.191h3.16v2.996h-3.16v2.185h10.72c0.169-0.051 0.311-0.251 0.424-0.597 0.113-0.349 0.172-0.633 0.172-0.848v-21.999c0-0.171-0.059-0.273-0.172-0.309-0.113-0.035-0.255-0.053-0.424-0.053zM30.013 25.755h-5.143v-2.993h5.143v2.996zM30.013 21.571h-5.143v-2.98h5.143zM30.013 17.4h-5.143v-2.959h5.143v2.961zM30.013 13.4h-5.143v-3.139h5.143v3.14zM30.013 9.241h-5.143v-3.12h5.143v3.14zM0 3.641v24.801l18.88 3.265v-31.416l-18.88 3.36zM11.191 22.403c-0.072-0.195-0.411-1.021-1.011-2.484-0.599-1.461-0.96-2.312-1.065-2.555h-0.033l-2.025 4.82-2.707-0.183 3.211-6-2.94-6 2.76-0.145 1.824 4.695h0.036l2.060-4.908 2.852-0.18-3.396 6.493 3.5 6.624-3.065-0.18z"></path>
</symbol>

<symbol id="icon-microsoft" viewBox="0 0 32 32" x="0" y="0">
  <path d="M15.2 32h-15.2v-15.2h15.2zM32 32h-15.2v-15.2h15.2zM15.2 15.2h-15.2v-15.2h15.2zM32 15.2h-15.2v-15.2h15.2z"></path>
</symbol>

<symbol id="icon-google1" viewBox="0 0 32 32" x="0" y="0">
  <path d="M16.319 13.713v5.487h9.075c-0.369 2.356-2.744 6.9-9.075 6.9-5.463 0-9.919-4.525-9.919-10.1s4.456-10.1 9.919-10.1c3.106 0 5.188 1.325 6.375 2.469l4.344-4.181c-2.788-2.612-6.4-4.188-10.719-4.188-8.844 0-16 7.156-16 16s7.156 16 16 16c9.231 0 15.363-6.494 15.363-15.631 0-1.050-0.113-1.85-0.25-2.65l-15.113-0.006z"></path>
</symbol>

<symbol id="icon-google2" viewBox="0 0 32 32" x="0" y="0">
  <path d="M29 0h-26c-1.65 0-3 1.35-3 3v26c0 1.65 1.35 3 3 3h26c1.65 0 3-1.35 3-3v-26c0-1.65-1.35-3-3-3zM16.238 28c-6.631 0-12-5.369-12-12s5.369-12 12-12c3.238 0 5.95 1.181 8.037 3.138l-3.256 3.138c-0.894-0.856-2.45-1.85-4.781-1.85-4.1 0-7.438 3.394-7.438 7.575s3.344 7.575 7.438 7.575c4.75 0 6.531-3.413 6.806-5.175h-6.806v-4.113h11.331c0.1 0.6 0.188 1.2 0.188 1.988 0.006 6.856-4.588 11.725-11.519 11.725z"></path>
</symbol>

<symbol id="icon-flag" xmlns="http://www.w3.org/2000/svg" viewBox="0 0 24 24">
    <path d="M 3.90625 4 L 9 8 L 9 4 L 3.90625 4 z M 11 4 L 11 11 L 2 11 L 2 13 L 11 13 L 11 20 L 13 20 L 13 13 L 22 13 L 22 11 L 13 11 L 13 4 L 11 4 z M 15 4 L 15 8 L 20.09375 4 L 15 4 z M 2 5 L 2 9 L 7.09375 9 L 2 5 z M 22 5 L 16.90625 9 L 22 9 L 22 5 z M 2 15 L 2 19 L 7.09375 15 L 2 15 z M 16.90625 15 L 22 19 L 22 15 L 16.90625 15 z M 9 16 L 3.90625 20 L 9 20 L 9 16 z M 15 16 L 15 20 L 20.09375 20 L 15 16 z"></path>
</symbol>

<symbol id="icon-java" xmlns="http://www.w3.org/2000/svg" viewBox="0 0 24 30" x="0" y="4">
    <path d="M9.5 19A2.503 2.503 0 017 16.5a.5.5 0 00-1 0C6 18.43 7.57 20 9.5 20a.5.5 0 000-1zm-3-14h9a.5.5 0 010 1h-5C9.673 6 9 6.673 9 7.5v1a.5.5 0 001 0v-1a.5.5 0 01.5-.5h5c.827 0 1.5-.673 1.5-1.5S16.327 4 15.5 4h-9a.5.5 0 010-1h7c.827 0 1.5-.673 1.5-1.5v-1a.5.5 0 00-1 0v1a.5.5 0 01-.5.5h-7C5.673 2 5 2.673 5 3.5S5.673 5 6.5 5z"></path>
    <path d="M19.5 12H18v-.5c0-.827-.673-1.5-1.5-1.5h-11c-.827 0-1.5.673-1.5 1.5v5c0 1.86.931 3.504 2.348 4.5H3.5a.5.5 0 000 1h.691l.862 1.724A.5.5 0 005.5 24h11a.5.5 0 00.447-.276L17.809 22h.691a.5.5 0 000-1h-2.848a5.508 5.508 0 002.192-3.222l1.341-.386A2.5 2.5 0 0021 14.99V13.5c0-.827-.673-1.5-1.5-1.5zm-2.809 10l-.5 1H5.809l-.5-1h11.382zM17 16.5c0 2.481-2.019 4.5-4.5 4.5h-3A4.505 4.505 0 015 16.5v-5a.5.5 0 01.5-.5h11a.5.5 0 01.5.5v5zm3-1.51c0 .668-.446 1.26-1.089 1.439l-.921.265c.002-.064.01-.128.01-.194V13h1.5a.5.5 0 01.5.5v1.49z"></path>
    <circle cx="6.5" cy="14.5" r=".5"></circle>
</symbol>

</svg>

